<svg xmlns="http://www.w3.org/2000/svg" width="1000" height="700" viewBox="0 0 1000 700"><rect width="1000" height="700" fill="#b1b8e0"/><rect x="60" y="55" width="880" height="590" rx="4" fill="#262b42"/><text x="104" y="112" font-family="Arial" font-size="22" fill="#f5f0e7" letter-spacing="3">MASTER COPY</text><text x="640" y="110" font-family="Arial" font-size="12" fill="#f5f0e7">SOBRE     SERVIÇOS     CONTATO</text><path d="M100 145H900" stroke="#f5f0e7" opacity=".2"/><rect x="590" y="181" width="310" height="341" fill="#b1b8e0"/><path d="M620 522V300L749 206L870 300V522Z" fill="#f5f0e7" opacity=".86"/><path d="M650 522V330L749 255L840 330V522Z" fill="#262b42" opacity=".65"/><path d="M730 522V352H780V522" fill="#f5f0e7" opacity=".4"/><text x="104" y="278" font-family="Georgia" font-size="42" fill="#f5f0e7">Boas ideias.</text><text x="104" y="335" font-family="Georgia" font-size="42" fill="#f5f0e7">Palavras certas.</text><rect x="105" y="369" width="330" height="5" fill="#f5f0e7" opacity=".18"/><rect x="105" y="386" width="270" height="5" fill="#f5f0e7" opacity=".18"/><rect x="104" y="430" width="178" height="47" fill="#f5f0e7"/><text x="124" y="460" font-family="Arial" font-size="13" fill="#262b42">Conheça a proposta</text><path d="M100 558H900" stroke="#f5f0e7" opacity=".2"/><text x="104" y="603" font-family="Arial" font-size="13" letter-spacing="2" fill="#f5f0e7">S&amp;M DIGITAL / ESTUDO DE LAYOUT</text></svg>